<svg width="512" height="512" viewBox="0 0 512 512" fill="none" xmlns="http://www.w3.org/2000/svg">
<g clip-path="url(#clip0)">
<path d="M326.821 250.266H185.179L136.787 445.632C133.967 457.016 137.448 469.04 145.914 477.157L170.089 500.335C177.897 507.82 188.296 512 199.112 512H312.887C323.704 512 334.102 507.82 341.91 500.335L366.085 477.157C374.551 469.04 378.032 457.017 375.212 445.632L326.821 250.266Z" fill="#D3EFFB"/>
<path d="M326.821 250.266H185.179L179.419 273.522H283.381C298.519 273.522 311.708 283.842 315.348 298.537L350.887 442.017C354.261 455.638 350.096 470.024 339.966 479.736L306.313 512H312.887C323.704 512 334.102 507.821 341.91 500.335L366.085 477.157C374.551 469.04 378.032 457.017 375.212 445.632L326.821 250.266Z" fill="#B1E4F9"/>
<path d="M256 103.089L237.896 84.985C218.418 65.507 218.418 33.928 237.896 14.45L249.763 2.583C253.207 -0.861 258.791 -0.861 262.235 2.583L274.102 14.45C293.58 33.928 293.58 65.507 274.102 84.985L256 103.089Z" fill="#78C2A4"/>
<path d="M222.327 110.247L213.2 101.12C192.102 80.022 192.102 45.815 213.2 24.717L216.797 21.12C219.851 18.066 224.803 18.066 227.857 21.12L231.454 24.717C252.552 45.815 252.552 80.022 231.454 101.12L222.327 110.247Z" fill="#3D6B73"/>
<path d="M289.673 110.247L280.546 101.12C259.448 80.022 259.448 45.815 280.546 24.717L284.143 21.12C287.197 18.066 292.149 18.066 295.203 21.12L298.8 24.717C319.898 45.815 319.898 80.022 298.8 101.12L289.673 110.247Z" fill="#3D6B73"/>
<path d="M256 134.732L237.896 116.628C218.418 97.15 218.418 65.571 237.896 46.093L249.763 34.226C253.207 30.782 258.791 30.782 262.235 34.226L274.102 46.093C293.58 65.571 293.58 97.15 274.102 116.628L256 134.732Z" fill="#95D6A4"/>
<path d="M218.015 146.773L207.491 139.299C183.164 122.023 177.449 88.297 194.725 63.971L197.67 59.824C200.171 56.302 205.053 55.475 208.575 57.976L212.722 60.921C237.049 78.197 242.764 111.923 225.488 136.249L218.015 146.773Z" fill="#78C2A4"/>
<path d="M215.642 171.937L203.662 167.132C175.97 156.024 162.525 124.57 173.633 96.878L175.527 92.157C177.135 88.148 181.688 86.202 185.697 87.81L190.418 89.704C218.11 100.812 231.555 132.266 220.447 159.958L215.642 171.937Z" fill="#4F8980"/>
<path d="M232.57 171.521L223.443 162.394C202.345 141.296 202.345 107.089 223.443 85.991L227.04 82.394C230.094 79.34 235.046 79.34 238.1 82.394L241.697 85.991C262.795 107.089 262.795 141.296 241.697 162.394L232.57 171.521Z" fill="#3D6B73"/>
<path d="M218.591 227.302L204.355 224.269C171.447 217.258 150.453 184.897 157.464 151.989L158.659 146.379C159.674 141.615 164.359 138.576 169.122 139.591L174.732 140.786C207.64 147.797 228.634 180.158 221.623 213.066L218.591 227.302Z" fill="#69AF81"/>
<path d="M231.502 215.714L218.897 208.436C189.758 191.613 179.775 154.353 196.598 125.215L199.466 120.247C201.901 116.029 207.295 114.584 211.513 117.019L216.481 119.887C245.62 136.71 255.603 173.97 238.78 203.108L231.502 215.714Z" fill="#78C2A4"/>
<path d="M293.985 146.773L304.509 139.299C328.836 122.023 334.551 88.297 317.275 63.971L314.33 59.824C311.829 56.302 306.947 55.475 303.425 57.976L299.278 60.921C274.951 78.197 269.236 111.923 286.512 136.249L293.985 146.773Z" fill="#78C2A4"/>
<path d="M296.358 171.937L308.338 167.132C336.03 156.024 349.475 124.57 338.367 96.878L336.473 92.157C334.865 88.148 330.312 86.202 326.303 87.81L321.582 89.704C293.89 100.812 280.445 132.266 291.553 159.958L296.358 171.937Z" fill="#3D6B73"/>
<path d="M279.43 171.521L288.557 162.394C309.655 141.296 309.655 107.089 288.557 85.991L284.96 82.394C281.906 79.34 276.954 79.34 273.9 82.394L270.303 85.991C249.205 107.089 249.205 141.296 270.303 162.394L279.43 171.521Z" fill="#4F8980"/>
<path d="M293.409 227.302L307.645 224.269C340.553 217.258 361.547 184.897 354.536 151.989L353.341 146.379C352.326 141.615 347.641 138.576 342.878 139.591L337.268 140.786C304.36 147.797 283.366 180.158 290.377 213.066L293.409 227.302Z" fill="#69AF81"/>
<path d="M280.498 215.714L293.103 208.436C322.242 191.613 332.225 154.353 315.402 125.215L312.534 120.247C310.099 116.029 304.705 114.584 300.487 117.019L295.519 119.887C266.38 136.71 256.397 173.97 273.22 203.108L280.498 215.714Z" fill="#78C2A4"/>
<path d="M256 216.226L237.896 198.122C218.418 178.644 218.418 147.065 237.896 127.587L249.763 115.72C253.207 112.276 258.791 112.276 262.235 115.72L274.102 127.587C293.58 147.065 293.58 178.644 274.102 198.122L256 216.226Z" fill="#95D6A4"/>
<path d="M346.874 250.266H165.126C160.989 250.266 157.636 246.912 157.636 242.776V203.073C157.636 198.936 160.99 195.583 165.126 195.583H346.874C351.011 195.583 354.364 198.937 354.364 203.073V242.776C354.365 246.913 351.011 250.266 346.874 250.266Z" fill="#D3EFFB"/>
<path d="M330.935 195.583V250.266H346.875C351.012 250.266 354.365 246.912 354.365 242.776V203.073C354.365 198.936 351.011 195.583 346.875 195.583H330.935Z" fill="#B1E4F9"/>
<path d="M298.288 250.266H213.712V322.611C213.712 323.842 214.71 324.841 215.942 324.841H296.059C297.29 324.841 298.289 323.843 298.289 322.611V250.266H298.288Z" fill="#4A80AA"/>
<path d="M213.712 250.266H298.288V273.522H213.712V250.266Z" fill="#407093"/>
<path d="M225.798 479.581C225.685 479.581 225.574 479.579 225.46 479.574C221.198 479.391 217.892 475.787 218.075 471.525C218.861 453.249 215.504 441.093 211.618 427.017C208.458 415.57 204.876 402.596 203.622 385.236C200.729 345.15 226.141 320.303 227.225 319.264C230.304 316.313 235.192 316.416 238.146 319.496C241.091 322.57 240.993 327.444 237.933 330.398C237.655 330.671 216.679 351.537 219.03 384.123C220.173 399.957 223.394 411.624 226.509 422.905C230.567 437.601 234.399 451.482 233.509 472.188C233.33 476.337 229.911 479.581 225.798 479.581V479.581Z" fill="#F6F1F1"/>
<path d="M189.547 332.567C188.768 332.567 187.976 332.448 187.194 332.199C183.131 330.9 180.889 326.554 182.187 322.49C194.98 282.458 226.983 279.933 228.339 279.846C232.601 279.55 236.27 282.798 236.547 287.054C236.822 291.291 233.626 294.95 229.4 295.258C228.321 295.352 206.349 297.631 196.903 327.193C195.854 330.473 192.816 332.567 189.547 332.567V332.567Z" fill="#F6F1F1"/>
<path d="M193.25 406.073C191.61 406.074 189.957 405.553 188.554 404.477C185.17 401.881 184.531 397.033 187.128 393.647C196.501 381.428 205.561 373.201 205.942 372.857C209.106 369.999 213.991 370.243 216.851 373.411C219.709 376.575 219.463 381.457 216.301 384.316C216.218 384.392 207.858 392.005 199.384 403.05C197.863 405.033 195.569 406.073 193.25 406.073V406.073Z" fill="#F6F1F1"/>
<path d="M232.566 433.717C229.185 433.717 226.082 431.48 225.13 428.065C224.958 427.447 224.9 427.239 223.632 427.08C222.08 426.884 220.324 427.227 219.778 427.375C215.685 428.565 211.429 426.199 210.239 422.102C209.049 418.006 211.439 413.711 215.535 412.521C217.103 412.065 225.285 409.99 232.286 413.889C236.103 416.014 238.774 419.482 240.01 423.917C241.156 428.026 238.753 432.286 234.643 433.431C233.951 433.625 233.252 433.717 232.566 433.717Z" fill="#F6F1F1"/>
<path d="M286.201 479.581C282.089 479.581 278.669 476.338 278.49 472.189C277.6 451.483 281.433 437.602 285.49 422.906C288.606 411.625 291.827 399.958 292.97 384.124C295.324 351.487 274.278 330.605 274.065 330.398C271.016 327.431 270.929 322.546 273.885 319.486C276.841 316.428 281.704 316.324 284.775 319.265C285.858 320.304 311.27 345.152 308.378 385.237C307.125 402.597 303.542 415.571 300.381 427.018C296.495 441.094 293.138 453.251 293.924 471.526C294.107 475.788 290.801 479.392 286.539 479.575C286.426 479.579 286.313 479.581 286.201 479.581V479.581Z" fill="#F6F1F1"/>
<path d="M322.453 332.567C319.183 332.567 316.146 330.474 315.098 327.192C305.617 297.527 283.525 295.334 282.59 295.256C278.333 294.98 275.142 291.308 275.417 287.051C275.694 282.794 279.375 279.573 283.661 279.845C285.017 279.932 317.019 282.457 329.812 322.489C331.111 326.552 328.87 330.899 324.806 332.198C324.025 332.448 323.233 332.567 322.453 332.567V332.567Z" fill="#F6F1F1"/>
<path d="M318.75 406.073C316.43 406.073 314.137 405.033 312.616 403.051C304.142 392.006 295.782 384.394 295.699 384.317C292.539 381.455 292.295 376.572 295.155 373.41C298.015 370.249 302.893 369.999 306.058 372.858C306.439 373.202 315.499 381.429 324.872 393.648C327.469 397.033 326.83 401.882 323.446 404.478C322.044 405.553 320.391 406.073 318.75 406.073V406.073Z" fill="#F6F1F1"/>
<path d="M279.434 433.717C278.748 433.717 278.05 433.624 277.356 433.431C273.247 432.285 270.844 428.026 271.989 423.917C273.225 419.482 275.896 416.014 279.713 413.889C286.713 409.989 294.896 412.065 296.464 412.521C300.56 413.711 302.917 417.996 301.727 422.093C300.543 426.171 296.29 428.525 292.212 427.372C291.656 427.224 289.91 426.885 288.367 427.08C287.1 427.239 287.041 427.447 286.869 428.065C285.918 431.481 282.814 433.717 279.434 433.717V433.717Z" fill="#F6F1F1"/>
<path d="M256.005 399.077C253.106 399.077 250.33 397.438 249.012 394.643C234.705 364.271 248.11 324.05 248.688 322.353C250.062 318.313 254.451 316.153 258.488 317.529C262.524 318.902 264.683 323.285 263.315 327.321C263.194 327.679 251.364 363.382 262.988 388.059C264.805 391.918 263.151 396.52 259.292 398.339C258.227 398.84 257.107 399.077 256.005 399.077V399.077Z" fill="#F6F1F1"/>
<path d="M270.639 380.731C267.595 380.731 264.713 378.919 263.49 375.935C263.068 374.938 259.297 366.646 251.246 367.768C247.031 368.35 243.118 365.412 242.527 361.187C241.937 356.963 244.882 353.059 249.108 352.468C265.294 350.204 274.956 363.03 277.805 370.127C279.394 374.087 277.473 378.584 273.515 380.172C272.571 380.552 271.598 380.731 270.639 380.731V380.731Z" fill="#F6F1F1"/>
</g>
<defs>
<clipPath id="clip0">
<rect width="512" height="512" fill="white"/>
</clipPath>
</defs>
</svg>
