<svg width="512" height="512" viewBox="0 0 512 512" fill="none" xmlns="http://www.w3.org/2000/svg">
<path d="M352.492 109.282L496.271 256.153L352.492 403.024V317.994H154.602V194.312H352.492V109.282Z" fill="#2999A6"/>
<path d="M352.492 418.484H346.307C340.513 415.53 336.912 409.527 337.032 403.024V333.454H154.602C150.465 333.701 146.454 331.982 143.78 328.816C140.867 325.961 139.201 322.072 139.142 317.994V194.312C139.142 185.774 146.063 178.852 154.602 178.852H337.032V109.282C337.202 103.058 340.76 97.4232 346.307 94.5943C352.231 92.2565 358.981 93.7909 363.314 98.459L507.866 245.33C513.377 251.492 513.377 260.812 507.866 266.975L363.314 413.846C360.459 416.759 356.57 418.427 352.492 418.484ZM170.062 302.534H352.492C361.031 302.534 367.952 309.455 367.952 317.994V365.147L474.627 256.153L367.952 147.159V194.312C367.952 202.851 361.031 209.773 352.492 209.773H170.062V302.534Z" fill="#012840"/>
<path d="M108.221 178.852C116.76 178.852 123.681 185.774 123.681 194.312V317.994C123.681 326.533 116.76 333.454 108.221 333.454C99.6826 333.454 92.7611 326.533 92.7611 317.994V194.312C92.7611 185.774 99.6826 178.852 108.221 178.852Z" fill="#012840"/>
<path d="M61.8408 178.852C70.3795 178.852 77.301 185.774 77.301 194.312V317.994C77.301 326.533 70.3795 333.454 61.8408 333.454C53.3021 333.454 46.3806 326.533 46.3806 317.994V194.312C46.3806 185.774 53.3021 178.852 61.8408 178.852Z" fill="#012840"/>
<path d="M15.4602 178.852C23.9989 178.852 30.9204 185.774 30.9204 194.312V317.994C30.9204 326.533 23.9989 333.454 15.4602 333.454C6.9215 333.454 0 326.533 0 317.994V194.312C0 185.774 6.9215 178.852 15.4602 178.852Z" fill="#012840"/>
</svg>
