<svg width="219" height="219" viewBox="0 0 219 219" fill="none" xmlns="http://www.w3.org/2000/svg">
<g clip-path="url(#clip0)">
<path d="M182.871 31.2606L86.8405 127.291C84.2523 129.88 80.0554 129.88 77.4671 127.291L36.1287 85.953L3.46423 118.617L65.8216 180.974C70.1533 185.306 76.0282 187.739 82.1538 187.739C88.279 187.739 94.1548 185.305 98.4856 180.974L215.535 63.9242L182.871 31.2606Z" fill="#A5EB78"/>
<g opacity="0.1">
<path opacity="0.1" d="M204.734 53.123L81.1645 176.692C77.7456 180.11 73.4468 182.441 68.8021 183.481C72.6799 186.229 77.3379 187.739 82.1538 187.739C88.279 187.739 94.1548 185.305 98.4856 180.974L215.535 63.9242L204.734 53.123Z" fill="black"/>
</g>
<path d="M82.1542 191.204C75.0594 191.204 68.3889 188.441 63.3715 183.424L1.01457 121.066C-0.338354 119.713 -0.338354 117.519 1.01457 116.167L33.679 83.5025C35.0324 82.1496 37.2258 82.1496 38.5787 83.5025L50.841 95.7644C52.1939 97.1173 52.1939 99.3112 50.841 100.664C49.4872 102.017 47.2938 102.016 45.9413 100.664L36.1291 90.8514L8.36435 118.616L68.2721 178.524C71.9801 182.232 76.9102 184.274 82.1547 184.274C87.3987 184.274 92.3283 182.231 96.0372 178.524L176.003 98.5579C177.356 97.205 179.549 97.2046 180.902 98.5579C182.255 99.9108 182.255 102.105 180.902 103.457L100.937 183.424C95.9187 188.441 89.2482 191.204 82.1542 191.204Z" fill="black"/>
<path d="M82.1542 132.697C79.4582 132.697 76.9239 131.647 75.0179 129.741L55.7407 110.464C54.3878 109.111 54.3878 106.917 55.7407 105.565C57.0941 104.212 59.2875 104.212 60.6404 105.565L79.9176 124.842C80.5147 125.439 81.3095 125.768 82.1542 125.768C82.999 125.768 83.7938 125.439 84.3913 124.841L180.421 28.811C181.775 27.458 183.968 27.458 185.321 28.811L217.985 61.4754C218.635 62.1247 219 63.0063 219 63.925C219 64.8438 218.635 65.7254 217.985 66.3747L190.701 93.6586C189.348 95.0115 187.155 95.0111 185.802 93.6586C184.449 92.3057 184.449 90.1118 185.802 88.7593L210.637 63.925L182.872 36.1607L89.2906 129.741C87.3842 131.647 84.8494 132.697 82.1542 132.697Z" fill="black"/>
</g>
<defs>
<clipPath id="clip0">
<rect width="219" height="219" fill="white"/>
</clipPath>
</defs>
</svg>
