<svg width="512" height="512" viewBox="0 0 512 512" fill="none" xmlns="http://www.w3.org/2000/svg">
<g clip-path="url(#clip0)">
<path d="M358.924 72.248C382.721 92.1078 401.02 115.646 414.133 142.652C415.03 144.354 413.271 146.448 411.44 145.859L372.02 134.591C371.317 134.39 370.561 134.536 369.984 134.984L337.597 160.122C336.117 161.352 333.704 160.062 333.904 158.147C336.016 128.2 344.234 99.5411 358.924 72.248V72.248Z" fill="#E490D0"/>
<path d="M153.076 72.248C129.279 92.1078 110.98 115.646 97.867 142.652C96.97 144.354 98.729 146.448 100.56 145.859L139.98 134.591C140.683 134.39 141.439 134.536 142.016 134.984L174.403 160.122C175.883 161.352 178.296 160.062 178.096 158.147C175.984 128.2 167.766 99.5411 153.076 72.248V72.248Z" fill="#E490D0"/>
<path d="M362.86 75.9921C334.358 88.1726 305.077 93.7839 275.06 93.1988C273.137 93.2248 272.069 90.7067 273.426 89.3437L301.37 59.3434C301.868 58.8084 302.082 58.0684 301.945 57.3504L294.261 17.0787C293.838 15.2016 296.082 13.6376 297.697 14.6846C323.417 30.1692 345.216 50.5081 362.86 75.9921V75.9921Z" fill="#E490D0"/>
<path d="M149.14 75.9921C177.642 88.1726 206.923 93.7839 236.94 93.1988C238.863 93.2248 239.931 90.7067 238.574 89.3437L210.63 59.3434C210.132 58.8084 209.918 58.0684 210.055 57.3504L217.739 17.0787C218.162 15.2016 215.918 13.6376 214.303 14.6846C188.583 30.1692 166.784 50.5081 149.14 75.9921Z" fill="#E490D0"/>
<path d="M352.873 87.2266C354.967 56.3023 363.269 27.6661 377.423 1.19105C378.273 -0.535019 381.003 -0.341011 381.601 1.48706L395.635 40.0086C395.885 40.6957 396.448 41.2217 397.15 41.4257L436.518 52.8712C438.383 53.3472 438.756 56.0563 437.09 57.0193C411.613 72.901 383.592 83.0834 352.873 87.2266V87.2266Z" fill="#E490D0"/>
<path d="M159.126 87.2266C157.032 56.3023 148.731 27.6661 134.576 1.19105C133.726 -0.535019 130.997 -0.341011 130.399 1.48706L116.365 40.0086C116.115 40.6957 115.552 41.2217 114.85 41.4257L75.4821 52.8712C73.617 53.3472 73.244 56.0563 74.91 57.0193C100.387 72.901 128.408 83.0834 159.126 87.2266V87.2266Z" fill="#E490D0"/>
<path d="M269.972 332.767C265.998 332.767 262.565 329.79 262.091 325.745C252.822 246.624 279.228 181.363 303.012 140.55C328.736 96.406 356.364 71.1559 357.528 70.1019C360.779 67.1598 365.805 67.4078 368.749 70.6609C371.693 73.912 371.445 78.9342 368.197 81.8794C367.927 82.1234 340.951 106.85 316.469 149.021C294.042 187.653 269.141 249.351 277.874 323.896C278.384 328.254 275.265 332.202 270.908 332.713C270.592 332.748 270.281 332.767 269.972 332.767V332.767Z" fill="#DD5CA2"/>
<path d="M242.028 332.767C246.002 332.767 249.435 329.79 249.909 325.745C259.178 246.624 232.772 181.363 208.988 140.55C183.264 96.406 155.636 71.1569 154.473 70.1029C151.222 67.1608 146.196 67.4088 143.252 70.6619C140.308 73.913 140.556 78.9352 143.804 81.8804C144.074 82.1244 171.05 106.851 195.532 149.022C217.959 187.654 242.86 249.352 234.127 323.897C233.617 328.255 236.736 332.203 241.093 332.714C241.408 332.748 241.719 332.767 242.028 332.767V332.767Z" fill="#DD5CA2"/>
<path d="M269.991 330.306C269.521 330.306 269.045 330.265 268.568 330.178C264.25 329.397 261.384 325.262 262.165 320.945C278.911 228.385 331.949 202.811 334.198 201.767C338.178 199.921 342.901 201.65 344.749 205.631C346.59 209.601 344.875 214.31 340.918 216.167C340.656 216.293 328.759 222.13 315.18 238.055C302.516 252.907 285.751 279.835 277.8 323.773C277.105 327.613 273.76 330.306 269.991 330.306V330.306Z" fill="#DD5CA2"/>
<path d="M242.009 330.306C242.479 330.306 242.955 330.265 243.432 330.178C247.75 329.397 250.616 325.262 249.835 320.945C233.089 228.385 180.051 202.811 177.802 201.767C173.822 199.921 169.099 201.65 167.251 205.631C165.41 209.601 167.125 214.31 171.082 216.167C171.344 216.293 183.242 222.13 196.82 238.055C209.484 252.907 226.249 279.835 234.2 323.773C234.895 327.613 238.24 330.306 242.009 330.306Z" fill="#DD5CA2"/>
<path d="M141.739 491.425C140.975 489.56 140.341 487.604 139.839 485.561C139.011 482.193 141.568 478.934 145.036 478.934H366.963C370.432 478.934 372.988 482.193 372.16 485.561C371.658 487.604 371.025 489.56 370.26 491.425C365.097 504.021 352.536 512 338.923 512H173.076C159.464 512 146.902 504.021 141.739 491.425Z" fill="#9D6B6B"/>
<path d="M366.964 478.934H341.85C345.319 478.934 347.875 482.193 347.047 485.561C346.545 487.604 345.912 489.56 345.147 491.425C339.984 504.021 327.422 512 313.81 512H338.924C352.537 512 365.098 504.021 370.261 491.425C371.025 489.56 371.659 487.604 372.161 485.561C372.989 482.193 370.432 478.934 366.964 478.934Z" fill="#8B5E5E"/>
<path d="M174.711 478.934C137.92 430.59 124.476 394.543 134.38 325.03C135.262 318.842 140.534 314.227 146.785 314.227H365.215C371.466 314.227 376.738 318.842 377.621 325.03C387.524 394.542 374.08 430.59 337.289 478.934H174.711Z" fill="#C6865C"/>
<path d="M377.621 325.03C376.738 318.842 371.466 314.227 365.215 314.227H338.614C344.865 314.227 350.137 318.842 351.019 325.03C360.923 394.542 347.479 430.59 310.688 478.934H337.289C374.079 430.59 387.524 394.543 377.621 325.03Z" fill="#C17D4F"/>
<path d="M416.299 301.34C402.662 329.175 384.146 352.542 361.028 371.696C359.588 372.972 357.136 371.761 357.273 369.842L358.853 328.875C358.881 328.144 358.56 327.444 357.987 326.989L325.873 301.501C324.327 300.355 325.006 297.706 326.913 297.445C356.506 292.382 386.297 293.556 416.299 301.34Z" fill="#E490D0"/>
<path d="M95.7009 301.34C109.338 329.175 127.854 352.542 150.972 371.696C152.412 372.972 154.864 371.761 154.727 369.842L153.147 328.875C153.119 328.144 153.44 327.444 154.013 326.989L186.127 301.501C187.673 300.355 186.994 297.706 185.087 297.445C155.494 292.382 125.703 293.556 95.7009 301.34Z" fill="#E490D0"/>
<path d="M410.673 308.751C392.069 283.959 379.662 256.85 373.098 227.553C372.615 225.691 374.808 224.056 376.455 225.05L412.236 245.066C412.874 245.423 413.644 245.454 414.308 245.151L451.601 228.118C453.324 227.261 455.376 229.07 454.743 230.887C445.812 259.551 431.236 285.558 410.673 308.751V308.751Z" fill="#E490D0"/>
<path d="M101.327 308.751C119.931 283.959 132.338 256.85 138.902 227.553C139.385 225.691 137.192 224.056 135.545 225.05L99.7641 245.066C99.1261 245.423 98.356 245.454 97.692 245.151L60.3995 228.119C58.6764 227.262 56.6243 229.071 57.2574 230.888C66.1877 259.551 80.7643 285.558 101.327 308.751V308.751Z" fill="#E490D0"/>
<path d="M405.706 301.34C436.243 296.027 466.03 297.287 495.11 304.746C496.988 305.162 497.449 307.858 495.815 308.874L461.731 331.659C461.123 332.065 460.746 332.737 460.714 333.467L458.949 374.427C458.93 376.351 456.387 377.358 455.056 375.968C433.577 354.994 417.028 330.195 405.706 301.34V301.34Z" fill="#E490D0"/>
<path d="M106.294 301.34C75.7571 296.027 45.9699 297.287 16.8897 304.746C15.0116 305.162 14.5506 307.858 16.1847 308.874L50.2691 331.659C50.8771 332.065 51.2541 332.737 51.2861 333.467L53.0512 374.427C53.0702 376.351 55.6133 377.358 56.9443 375.968C78.4232 354.994 94.9719 330.195 106.294 301.34V301.34Z" fill="#E490D0"/>
<path d="M415.753 306.186C419.177 303.442 419.73 298.442 416.985 295.018L398.864 272.402C383.829 253.636 360.75 245.117 337.124 249.611C313.527 254.102 295.204 270.471 288.095 293.409L281.219 314.227H297.953L303.206 298.322C303.222 298.272 303.238 298.223 303.253 298.173C308.581 280.917 322.353 268.598 340.095 265.222C357.83 261.853 375.17 268.245 386.464 282.338L404.585 304.954C407.329 308.377 412.328 308.932 415.753 306.186V306.186Z" fill="#DD5CA2"/>
<path d="M125.535 282.339C136.829 268.245 154.169 261.853 171.904 265.223C189.646 268.6 203.418 280.918 208.746 298.174C208.76 298.224 208.777 298.273 208.793 298.323L214.046 314.228H230.781L223.905 293.41C216.796 270.473 198.473 254.103 174.876 249.612C151.251 245.117 128.172 253.636 113.136 272.403L95.0149 295.019C92.2708 298.443 92.8228 303.443 96.2469 306.187C99.6721 308.933 104.671 308.378 107.414 304.955L125.535 282.339Z" fill="#DD5CA2"/>
</g>
<defs>
<clipPath id="clip0">
<rect width="512" height="512" fill="white"/>
</clipPath>
</defs>
</svg>
