<svg width="512" height="512" viewBox="0 0 512 512" fill="none" xmlns="http://www.w3.org/2000/svg">
<g clip-path="url(#clip0)">
<path d="M235.105 116.629C230.804 116.629 227.3 113.161 227.262 108.852C227.065 85.908 218.362 66.674 201.395 51.687C188.395 40.204 175.149 35.58 175.017 35.534C170.926 34.132 168.733 29.679 170.125 25.586C171.517 21.492 175.953 19.289 180.048 20.674C180.69 20.891 195.959 26.132 211.281 39.489C231.764 57.345 242.715 81.284 242.952 108.717C242.989 113.049 239.508 116.591 235.175 116.629C235.151 116.629 235.128 116.629 235.105 116.629V116.629Z" fill="#69AF81"/>
<path d="M276.895 116.629C276.873 116.629 276.85 116.629 276.827 116.629C272.494 116.591 269.013 113.049 269.05 108.717C269.287 81.284 280.238 57.345 300.721 39.489C316.043 26.132 331.311 20.891 331.954 20.674C336.058 19.289 340.509 21.497 341.893 25.602C343.274 29.701 341.077 34.143 336.984 35.534C336.852 35.58 323.606 40.204 310.606 51.687C293.639 66.674 284.936 85.907 284.739 108.852C284.7 113.161 281.196 116.629 276.895 116.629V116.629Z" fill="#69AF81"/>
<path d="M270.786 128.812C250.888 115.634 151.751 40.878 122.521 34.805C79.049 25.772 36.634 54.454 29.112 98.213C28.963 99.077 28.819 99.944 28.677 100.815C28.251 103.437 30.971 105.44 33.341 104.238L41.328 100.186C75.278 82.963 187.399 140.924 224.513 149.393L241.29 153.221L270.786 128.812Z" fill="#95D6A4"/>
<path d="M260.378 145.62C268.934 139.954 248.898 125.413 275.714 107.746C311.264 84.325 356.078 39.918 389.479 34.804C433.368 28.084 475.366 54.453 482.888 98.212C483.036 99.076 483.181 99.943 483.323 100.814C483.749 103.436 481.029 105.439 478.659 104.237L470.672 100.185C436.722 82.962 324.601 140.923 287.487 149.392L283.253 150.495C262.575 155.88 240.802 155.365 220.403 149.007L260.378 145.62Z" fill="#78C2A4"/>
<path d="M270.786 170.335C250.888 157.157 172.669 103.319 143.439 97.246C99.967 88.213 57.552 116.895 50.03 160.654C49.881 161.518 49.737 162.385 49.595 163.256C49.169 165.878 51.889 167.881 54.259 166.679L62.246 162.627C96.196 145.404 187.399 182.447 224.513 190.916L241.29 194.744L270.786 170.335Z" fill="#69AF81"/>
<path d="M256 185.67C262.88 181.114 240.114 173.052 260.379 159.465C298.729 133.753 349.437 101.219 368.561 97.246C412.033 88.213 454.448 116.895 461.97 160.654C462.118 161.518 462.263 162.385 462.405 163.256C462.831 165.878 460.111 167.881 457.741 166.679L449.754 162.627C415.804 145.404 324.601 182.447 287.487 190.916L283.253 192.019C262.575 197.404 240.802 196.889 220.403 190.531L256 185.67Z" fill="#5EA570"/>
<path d="M256 390.554L252.372 371.774C229.35 252.608 229.35 130.136 252.372 10.97L254.205 1.481C254.587 -0.494002 257.413 -0.494002 257.795 1.481L259.628 10.97C282.65 130.136 282.65 252.608 259.628 371.774L256 390.554Z" fill="#4F8980"/>
<path d="M326.234 512H185.766C181.258 512 177.513 508.522 177.181 504.026L159.412 263.384H352.588L334.819 504.026C334.487 508.522 330.742 512 326.234 512Z" fill="#4A80AA"/>
<path d="M329.237 263.384L310.878 512H326.233C330.741 512 334.486 508.522 334.818 504.026L352.588 263.384H329.237Z" fill="#407093"/>
<path d="M270.786 213.252C250.888 200.074 172.669 146.236 143.439 140.163C99.967 131.13 57.552 159.812 50.03 203.571C49.881 204.435 49.737 205.302 49.595 206.173C49.169 208.795 51.889 210.798 54.259 209.596L62.246 205.544C96.196 188.321 187.399 225.364 224.513 233.833L241.29 237.661L270.786 213.252Z" fill="#95D6A4"/>
<path d="M216.42 232.207C236.318 219.029 339.331 146.236 368.56 140.163C412.032 131.13 454.447 159.812 461.969 203.571C462.117 204.435 462.262 205.302 462.404 206.173C462.83 208.795 460.11 210.798 457.74 209.596L449.753 205.544C415.803 188.321 324.6 225.364 287.486 233.833L283.252 234.936C262.574 240.321 240.801 239.806 220.402 233.448L216.42 232.207Z" fill="#78C2A4"/>
<path d="M270.786 244.806C250.888 231.628 204.045 198.708 174.816 192.635C131.344 183.602 88.929 212.284 81.407 256.043C81.402 256.072 81.397 256.101 81.392 256.131C80.764 259.791 84.598 262.595 87.91 260.915L93.622 258.017C127.572 240.794 187.398 256.919 224.513 265.388L241.29 269.216L270.786 244.806Z" fill="#69AF81"/>
<path d="M216.42 263.761C236.318 250.583 307.954 198.708 337.184 192.635C380.656 183.602 423.071 212.284 430.593 256.043C430.598 256.072 430.603 256.101 430.608 256.131C431.236 259.791 427.402 262.595 424.09 260.915L418.378 258.017C384.428 240.794 324.602 256.919 287.487 265.388L283.253 266.491C262.575 271.876 240.802 271.361 220.403 265.003L216.42 263.761Z" fill="#5EA570"/>
<path d="M270.786 273.996C250.887 260.817 224.961 248.815 195.73 242.742C152.26 233.711 109.848 262.39 102.326 306.147C102.275 306.443 102.225 306.739 102.175 307.035C101.613 310.368 105.067 312.931 108.081 311.402L114.541 308.125C148.491 290.902 187.399 286.109 224.514 294.578L241.291 298.406L270.786 273.996Z" fill="#95D6A4"/>
<path d="M216.42 292.952C236.318 279.774 287.036 248.817 316.266 242.744C359.738 233.711 402.153 262.393 409.675 306.152C409.727 306.455 409.779 306.759 409.83 307.064C410.389 310.384 406.921 312.926 403.919 311.403L397.459 308.126C363.509 290.903 324.601 286.11 287.486 294.579L283.252 295.682C262.574 301.067 240.801 300.552 220.402 294.194L216.42 292.952Z" fill="#78C2A4"/>
<path d="M256 278.075C238.927 282.495 175.027 296.216 157.246 309.273C130.801 328.693 125.598 366.169 145.922 391.925C145.936 391.942 145.949 391.959 145.963 391.977C147.663 394.131 151.101 393.401 151.815 390.752L153.044 386.19C160.359 359.027 198.782 334.127 221.776 317.922L224.474 316.141C237.651 307.442 248.127 295.225 254.715 280.876L256 278.075Z" fill="#69AF81"/>
<path d="M256 278.075C273.073 282.495 336.973 296.216 354.754 309.273C381.199 328.693 386.402 366.169 366.078 391.925C366.064 391.942 366.051 391.959 366.037 391.977C364.337 394.131 360.899 393.401 360.185 390.752L358.956 386.19C351.641 359.027 313.218 334.127 290.224 317.922L287.526 316.141C274.349 307.442 263.873 295.225 257.285 280.876L256 278.075Z" fill="#69AF81"/>
<path d="M297.764 383.564C293.55 383.564 290.066 380.217 289.929 375.973C289.183 352.885 276.107 334.841 264.569 318.922C261.471 314.647 258.521 310.577 256 306.63C253.478 310.578 250.528 314.648 247.431 318.922C235.893 334.841 222.817 352.885 222.072 375.973C221.933 380.304 218.327 383.712 213.979 383.56C209.649 383.42 206.252 379.797 206.392 375.467C207.292 347.573 222.504 326.583 234.728 309.716C241.634 300.188 248.156 291.188 248.156 285.508C248.156 281.176 251.668 277.664 256 277.664C260.332 277.664 263.844 281.176 263.844 285.508C263.844 291.188 270.367 300.187 277.272 309.716C289.496 326.582 304.708 347.573 305.609 375.467C305.749 379.797 302.352 383.42 298.022 383.56C297.935 383.563 297.85 383.564 297.764 383.564Z" fill="#4F8980"/>
</g>
<defs>
<clipPath id="clip0">
<rect width="512" height="512" fill="white"/>
</clipPath>
</defs>
</svg>
