<svg width="98" height="98" viewBox="0 0 98 98" fill="none" xmlns="http://www.w3.org/2000/svg">
<path d="M87.2543 88.8189C72.2585 101.06 25.4352 101.06 10.7455 88.8189C-4.25028 76.5775 -2.72013 24.2455 10.7455 10.4739C24.211 -3.29763 73.7887 -3.29763 87.2543 10.4739C100.72 24.2455 102.25 76.5777 87.2543 88.8189Z" fill="#5CA4DA"/>
<path d="M49.3061 67.3966C35.8405 78.1078 20.8448 83.6164 6.76724 83.9224C-3.63804 66.1724 -1.49571 23.0215 10.7457 10.4741C21.763 -0.849114 56.3449 -2.99145 76.2373 4.04733C81.1337 24.2457 71.0346 49.9525 49.3061 67.3966Z" fill="#6DAFE0"/>
<path d="M66.444 19.0431V30.6723H43.1853V40.4654C45.0214 39.8534 46.8578 39.8534 49.3059 39.8534C55.1205 39.8534 60.0171 41.6896 63.9956 45.0561C67.9741 48.4226 70.1162 53.013 70.1162 59.1336C70.1162 64.9482 67.9739 69.8449 63.6894 73.5172C59.405 77.1895 54.2023 79.3318 47.7755 79.3318C39.8186 79.3318 33.0858 76.2715 27.5771 70.4569L34.6159 60.6638C35.2279 61.2758 35.8401 61.8879 36.7583 62.4999C37.6764 63.1119 39.2066 64.3361 41.3487 65.5602C43.4911 66.7844 45.9392 67.3964 48.0815 67.3964C50.2238 67.3964 52.366 66.7844 54.2021 65.254C56.0382 64.0299 56.9564 61.8877 56.9564 59.1334C56.9564 56.3791 56.0382 54.543 54.2021 53.0128C52.366 51.4827 49.9176 50.8705 46.8573 50.8705C43.797 50.8705 40.4305 52.0946 36.4521 54.2368L30.9434 48.4222V19.0431H66.444Z" fill="white"/>
</svg>
