<svg width="146" height="146" viewBox="0 0 146 146" fill="none" xmlns="http://www.w3.org/2000/svg">
<path d="M78 138C40.4443 138 10 107.556 10 70C10 32.4443 40.4443 2 78 2C115.556 2 146 32.4443 146 70C146 107.556 115.556 138 78 138Z" fill="#AEE69C"/>
<path d="M78 2C72.6389 2 67.4304 2.63951 62.4275 3.81264C92.4741 10.8556 114.855 37.8054 114.855 70C114.855 102.195 92.4741 129.143 62.4275 136.187C67.4304 137.36 72.6389 138 78 138C115.556 138 146 107.556 146 70C146 32.4443 115.556 2 78 2Z" fill="#89DAA4"/>
<path d="M35.5 48.75C35.5 44.608 38.858 41.25 43 41.25C47.142 41.25 50.5 44.608 50.5 48.75V59.75C50.5 63.892 47.142 67.25 43 67.25C38.858 67.25 35.5 63.892 35.5 59.75V48.75Z" fill="black"/>
<path d="M110.5 48.75V59.75C110.5 63.892 107.142 67.25 103 67.25C98.858 67.25 95.5 63.892 95.5 59.75V48.75C95.5 44.608 98.858 41.25 103 41.25C107.142 41.25 110.5 44.608 110.5 48.75Z" fill="black"/>
<path d="M73.392 99.625C82.208 99.498 88.404 95.052 90.658 93.146C93.821 90.471 98.554 90.868 101.228 94.032C103.902 97.195 103.506 101.927 100.342 104.601C96.033 108.243 85.945 114.627 73.007 114.627C59.048 114.627 49.256 107.641 45.66 104.603C42.496 101.93 42.098 97.198 44.771 94.034C47.444 90.87 52.176 90.472 55.34 93.145C57.698 95.138 64.21 99.723 73.392 99.625Z" fill="black"/>
<path d="M33.125 11.844C44.986 4.096 58.774 0 73 0C113.252 0 146 32.748 146 73C146 113.252 113.252 146 73 146C32.748 146 0 113.252 0 73C0 61.638 2.541 50.749 7.55 40.634C9.389 36.923 13.889 35.404 17.6 37.242C21.312 39.081 22.83 43.581 20.992 47.292C17.016 55.319 15 63.968 15 73C15 104.981 41.019 131 73 131C104.981 131 131 104.981 131 73C131 41.019 104.981 15 73 15C61.696 15 50.744 18.251 41.328 24.402C37.861 26.667 33.213 25.693 30.948 22.225C28.683 18.757 29.658 14.109 33.125 11.844Z" fill="black"/>
</svg>
