<svg width="512" height="512" viewBox="0 0 512 512" fill="none" xmlns="http://www.w3.org/2000/svg">
<path d="M32.717 128.589C39.622 136.749 44.383 137.589 51.4 136.704C67.329 134.695 83.872 131.167 99.767 133.278C104.415 133.895 107.964 132.737 113.708 124.445C113.838 105.507 110.825 87.216 104.651 69.575C97.692 49.69 77.264 37.622 56.64 41.923C56.406 41.972 56.173 42.022 55.94 42.073C35.366 46.605 21.68 65.987 23.485 86.977C24.712 101.26 27.792 115.13 32.717 128.589V128.589Z" fill="#95D6A4"/>
<path d="M219.229 62.061C231.303 73.75 243.607 73.914 256.578 73.748C256.99 73.743 257.402 73.738 257.814 73.734C258.226 73.738 258.638 73.743 259.05 73.748C270.873 73.899 279.339 75.306 293.07 61.158C294.752 53.85 295.838 46.422 296.322 38.874C297.486 20.719 285.307 4.244 267.46 0.717C267.258 0.677 267.055 0.638 266.852 0.601C248.967 -2.725 231.557 8.077 225.922 25.374C222.037 37.3 219.811 49.53 219.229 62.061V62.061Z" fill="#69AF81"/>
<path d="M454.492 0.717C454.29 0.677 454.087 0.638 453.884 0.601C435.999 -2.725 418.589 8.077 412.954 25.374C409.335 36.483 407.158 47.855 406.405 59.489C408.548 68.734 412.096 69.36 414.874 69.015C434.326 66.601 446.058 68.846 461.832 80.122C463.897 81.598 467.174 82.09 475.558 76.684C479.917 64.433 482.522 51.831 483.352 38.874C484.517 20.719 472.339 4.243 454.492 0.717V0.717Z" fill="#95D6A4"/>
<path d="M406.406 59.489C405.196 78.201 407.682 97.59 413.857 117.655L448.377 124.275C460.626 109.05 469.687 93.186 475.559 76.684C456.838 60.286 431.017 53.649 406.406 59.489Z" fill="#78C2A4"/>
<path d="M52.032 121.906C45.016 122.791 38.476 125.13 32.717 128.589C39.917 148.262 51.06 167.055 66.128 184.973L105.928 176.44C110.997 158.599 113.592 141.267 113.708 124.446C93.177 120.166 72.619 119.31 52.032 121.906V121.906Z" fill="#78C2A4"/>
<path d="M72.69 83.034C71.919 83.034 71.136 82.918 70.361 82.673C66.292 81.388 64.035 77.048 65.321 72.979L66.436 69.45C67.721 65.382 72.057 63.119 76.13 64.41C80.199 65.695 82.456 70.035 81.17 74.104L80.055 77.633C79.015 80.928 75.97 83.034 72.69 83.034V83.034Z" fill="#CCF49F"/>
<path d="M62.075 120.74C60.454 120.74 58.819 120.232 57.426 119.181L54.471 116.951C51.066 114.38 50.389 109.535 52.959 106.129C55.53 102.725 60.377 102.049 63.781 104.617L66.736 106.847C70.141 109.418 70.818 114.264 68.248 117.669C66.729 119.681 64.416 120.74 62.075 120.74Z" fill="#CCF49F"/>
<path d="M456.005 40.392C454.231 40.392 452.449 39.784 450.993 38.542C447.748 35.772 447.362 30.895 450.133 27.65L452.208 25.218C454.978 21.973 459.853 21.586 463.1 24.358C466.345 27.128 466.731 32.005 463.96 35.25L461.885 37.682C460.357 39.473 458.188 40.392 456.005 40.392Z" fill="#CCF49F"/>
<path d="M435.682 55.409C433.012 55.409 430.415 54.024 428.984 51.545L427.385 48.776C425.251 45.081 426.518 40.355 430.213 38.222C433.907 36.089 438.633 37.354 440.767 41.05L442.366 43.819C444.5 47.514 443.233 52.24 439.538 54.373C438.322 55.075 436.993 55.409 435.682 55.409V55.409Z" fill="#CCF49F"/>
<path d="M136.317 491.992C135.574 490.178 134.958 488.276 134.469 486.289C133.664 483.013 136.15 479.844 139.523 479.844H375.944C379.317 479.844 381.804 483.013 380.998 486.289C380.51 488.275 379.894 490.178 379.15 491.992C374.131 504.241 361.915 512 348.677 512H166.791C153.553 512 141.338 504.241 136.317 491.992V491.992Z" fill="#9D6B6B"/>
<path d="M375.945 479.844H351.522C354.895 479.844 357.382 483.013 356.576 486.289C356.088 488.275 355.472 490.178 354.728 491.992C349.708 504.241 337.492 512 324.254 512H348.677C361.915 512 374.13 504.241 379.151 491.992C379.894 490.178 380.51 488.276 380.999 486.289C381.804 483.013 379.318 479.844 375.945 479.844Z" fill="#8B5E5E"/>
<path d="M168.382 479.844C132.604 432.831 119.53 397.776 129.161 330.178C130.018 324.16 135.146 319.672 141.225 319.672H374.245C380.324 319.672 385.451 324.16 386.309 330.178C395.94 397.776 382.866 432.831 347.088 479.844H168.382Z" fill="#C6865C"/>
<path d="M386.308 330.178C385.451 324.16 380.323 319.672 374.244 319.672H348.376C354.455 319.672 359.582 324.16 360.44 330.178C370.071 397.776 356.997 432.831 321.219 479.844H347.088C382.865 432.831 395.939 397.777 386.308 330.178Z" fill="#C17D4F"/>
<path d="M128.59 232.053C141.058 218.698 138.875 217.233 137.825 210.134C135.119 191.828 130.833 183.557 135.158 166.801C136.153 162.945 141.057 159.416 130.647 146.509C106.17 139.827 81.653 138.013 57.096 141.11C32.977 144.152 14.42 164.281 14.283 188.59C14.281 188.866 14.281 189.141 14.283 189.417C14.42 213.726 32.977 233.856 57.096 236.897C80.966 239.906 104.797 238.282 128.59 232.053V232.053Z" fill="#69AF81"/>
<path d="M124.406 210.852C125.455 217.951 126.84 225.021 128.589 232.053C145.069 227.738 161.532 221.216 177.976 212.487V165.518C162.216 157.152 146.44 150.82 130.647 146.508C123.565 166.42 121.078 188.333 124.406 210.852V210.852Z" fill="#5EA570"/>
<path d="M489.278 114.525C469.838 76.228 423.032 60.942 384.735 80.382C376.012 84.81 366.366 91.738 356.898 100.242C349.157 128.029 358.159 123.485 361.404 128.029C380.823 155.222 379.724 157.011 374.405 192.994C373.256 200.767 367.103 200.079 386.365 234.053C412.17 233.401 438.376 227.576 455.136 219.068C493.433 199.628 508.719 152.822 489.278 114.525V114.525Z" fill="#69AF81"/>
<path d="M356.898 100.243C324.799 129.074 294.76 176.073 309.772 205.648C320.705 227.186 353.203 234.892 386.365 234.054C388.357 226.362 389.914 218.625 391.063 210.853C397.27 168.856 383.26 128.97 356.898 100.243V100.243Z" fill="#5EA570"/>
<path d="M258.971 56.354C258.559 56.349 258.147 56.344 257.735 56.34C257.323 56.344 256.911 56.349 256.499 56.354C243.528 56.52 231.016 58.513 219.229 62.061C218.397 79.977 220.932 98.506 226.825 117.655L261.345 124.275C277.39 104.332 287.972 83.294 293.068 61.158C282.213 58.178 270.794 56.505 258.971 56.354V56.354Z" fill="#5EA570"/>
<path d="M248.581 41.841C246.807 41.841 245.025 41.233 243.569 39.991C240.324 37.221 239.938 32.344 242.709 29.099L244.784 26.667C247.554 23.422 252.429 23.035 255.676 25.807C258.921 28.577 259.307 33.454 256.536 36.699L254.461 39.131C252.933 40.922 250.764 41.841 248.581 41.841V41.841Z" fill="#CCF49F"/>
<path d="M269.371 56.794C266.701 56.794 264.104 55.409 262.673 52.93L261.074 50.161C258.94 46.466 260.207 41.74 263.902 39.607C267.596 37.474 272.322 38.739 274.456 42.435L276.055 45.204C278.189 48.899 276.922 53.625 273.227 55.758C272.011 56.46 270.682 56.794 269.371 56.794V56.794Z" fill="#CCF49F"/>
<path d="M201.175 319.672C164.952 285.07 148.012 247.555 142.321 209.056C132.008 139.284 186.14 76.22 256.665 75.318C257.022 75.313 257.378 75.309 257.735 75.306C258.092 75.309 258.448 75.313 258.805 75.318C329.33 76.22 383.462 139.284 373.148 209.056C367.457 247.555 350.518 285.07 314.294 319.672H201.175Z" fill="#95D6A4"/>
<path d="M360.064 219.461C368.639 161.453 335.26 96.541 282.357 79.675C274.8 77.266 261.707 75.916 246.249 75.916C180.905 82.53 132.52 142.761 142.32 209.056C148.011 247.555 164.95 285.07 201.174 319.672H291.324C305.791 317.457 309.62 317.052 314.413 312.322C342.894 284.217 355.193 252.414 360.064 219.461V219.461Z" fill="#95D6A4"/>
<path d="M258.804 75.318C258.447 75.313 258.091 75.309 257.734 75.306C257.377 75.309 257.021 75.313 256.664 75.318C253.149 75.363 249.677 75.569 246.25 75.916C311.594 82.529 359.979 142.761 350.179 209.056C344.488 247.555 327.549 285.07 291.325 319.672H314.293C350.517 285.07 367.456 247.555 373.147 209.056C383.461 139.284 329.328 76.22 258.804 75.318V75.318Z" fill="#78C2A4"/>
<path d="M276.245 120.971C273.169 120.971 270.261 119.121 269.059 116.087L267.112 111.17C265.542 107.203 267.484 102.713 271.452 101.142C275.416 99.573 279.909 101.514 281.48 105.482L283.427 110.398C284.997 114.365 283.055 118.855 279.087 120.426C278.155 120.796 277.192 120.971 276.245 120.971V120.971Z" fill="#CCF49F"/>
<path d="M456.984 169.991C453.908 169.991 451 168.141 449.798 165.107L447.851 160.19C446.281 156.223 448.223 151.733 452.191 150.162C456.155 148.593 460.647 150.534 462.219 154.502L464.166 159.419C465.736 163.386 463.794 167.876 459.826 169.447C458.893 169.816 457.93 169.991 456.984 169.991V169.991Z" fill="#CCF49F"/>
<path d="M397.79 123.429C394.714 123.429 391.806 121.579 390.604 118.545L388.657 113.629C387.087 109.662 389.029 105.172 392.997 103.601C396.961 102.033 401.453 103.973 403.025 107.941L404.972 112.857C406.542 116.824 404.6 121.314 400.632 122.885C399.7 123.254 398.737 123.429 397.79 123.429V123.429Z" fill="#CCF49F"/>
<path d="M92.04 210.134C88.964 210.134 86.055 208.284 84.854 205.249L82.908 200.333C81.338 196.365 83.281 191.876 87.249 190.306C91.216 188.735 95.706 190.678 97.276 194.647L99.222 199.564C100.792 203.532 98.849 208.021 94.881 209.591C93.948 209.959 92.986 210.134 92.04 210.134V210.134Z" fill="#CCF49F"/>
<path d="M297.373 248.55C294.297 248.55 291.389 246.7 290.188 243.667L288.241 238.752C286.67 234.784 288.612 230.294 292.579 228.724C296.548 227.151 301.036 229.095 302.607 233.062L304.554 237.977C306.125 241.945 304.183 246.435 300.216 248.005C299.282 248.375 298.32 248.55 297.373 248.55V248.55Z" fill="#CCF49F"/>
<path d="M178.952 174.906C175.876 174.906 172.968 173.056 171.767 170.023L169.82 165.108C168.249 161.14 170.191 156.65 174.158 155.08C178.125 153.508 182.616 155.451 184.186 159.418L186.133 164.333C187.704 168.301 185.762 172.791 181.795 174.361C180.862 174.731 179.899 174.906 178.952 174.906V174.906Z" fill="#CCF49F"/>
<path d="M51.161 195.159C48.085 195.159 45.177 193.309 43.975 190.275L42.028 185.358C40.458 181.391 42.4 176.901 46.368 175.33C50.331 173.762 54.824 175.702 56.396 179.67L58.343 184.586C59.913 188.553 57.971 193.043 54.003 194.614C53.07 194.984 52.107 195.159 51.161 195.159V195.159Z" fill="#CCF49F"/>
<path d="M224.006 147.369C222.911 147.369 221.801 147.136 220.743 146.642C216.876 144.838 215.205 140.241 217.01 136.373L218.822 132.491C220.626 128.624 225.223 126.951 229.091 128.758C232.958 130.562 234.629 135.159 232.824 139.027L231.012 142.909C229.701 145.718 226.914 147.369 224.006 147.369Z" fill="#CCF49F"/>
<path d="M112.796 183.222C111.701 183.222 110.591 182.989 109.533 182.495C105.666 180.691 103.995 176.094 105.8 172.226L107.612 168.344C109.417 164.477 114.013 162.805 117.881 164.611C121.748 166.415 123.419 171.012 121.614 174.88L119.802 178.762C118.492 181.571 115.705 183.222 112.796 183.222Z" fill="#CCF49F"/>
<path d="M239.936 194.642C238.842 194.642 237.732 194.409 236.675 193.916C232.808 192.112 231.135 187.515 232.939 183.648L234.75 179.766C236.554 175.9 241.152 174.226 245.018 176.03C248.885 177.834 250.558 182.431 248.754 186.298L246.943 190.18C245.632 192.99 242.846 194.642 239.936 194.642Z" fill="#CCF49F"/>
<path d="M201.66 231.037C197.851 231.037 194.535 228.22 194.013 224.34C193.444 220.112 196.41 216.221 200.64 215.653L204.885 215.082C209.105 214.51 213.003 217.478 213.572 221.709C214.141 225.937 211.175 229.828 206.945 230.396L202.7 230.967C202.351 231.014 202.003 231.037 201.66 231.037V231.037Z" fill="#CCF49F"/>
<path d="M411.147 175.191C407.338 175.191 404.022 172.374 403.5 168.494C402.931 164.266 405.897 160.375 410.127 159.807L414.372 159.236C418.594 158.66 422.49 161.632 423.059 165.863C423.628 170.091 420.662 173.982 416.432 174.55L412.187 175.121C411.838 175.168 411.49 175.191 411.147 175.191Z" fill="#CCF49F"/>
<path d="M309.42 185.164C308.326 185.164 307.216 184.931 306.159 184.438C302.292 182.635 300.619 178.038 302.423 174.17L304.234 170.287C306.038 166.42 310.636 164.747 314.502 166.551C318.369 168.354 320.042 172.951 318.238 176.819L316.427 180.702C315.116 183.512 312.33 185.164 309.42 185.164V185.164Z" fill="#CCF49F"/>
<path d="M441.065 117.996C439.971 117.996 438.861 117.763 437.804 117.27C433.937 115.466 432.264 110.869 434.068 107.002L435.879 103.12C437.683 99.253 442.281 97.58 446.147 99.384C450.014 101.188 451.687 105.785 449.883 109.652L448.072 113.534C446.761 116.344 443.975 117.996 441.065 117.996V117.996Z" fill="#CCF49F"/>
<path d="M245.34 279.938C244.245 279.938 243.135 279.705 242.077 279.211C238.21 277.407 236.539 272.81 238.344 268.942L240.156 265.06C241.961 261.193 246.557 259.52 250.425 261.327C254.292 263.131 255.963 267.728 254.158 271.596L252.346 275.478C251.035 278.287 248.248 279.938 245.34 279.938Z" fill="#CCF49F"/>
</svg>
