<svg width="144" height="144" viewBox="0 0 144 144" fill="none" xmlns="http://www.w3.org/2000/svg">
<path d="M69 132C34.2057 132 6 103.794 6 69C6 34.2057 34.2057 6 69 6C103.794 6 132 34.2057 132 69C132 103.794 103.794 132 69 132Z" fill="#FFE179"/>
<path d="M69 6C64.0331 6 59.2076 6.59249 54.5725 7.67936C82.4099 14.2044 103.145 39.1726 103.145 69C103.145 98.8274 82.4099 123.795 54.5725 130.321C59.2076 131.408 64.0331 132 69 132C103.794 132 132 103.794 132 69C132 34.2057 103.794 6 69 6Z" fill="#FBD268"/>
<path d="M42.411 102.822C42.411 106.907 45.723 110.219 49.8082 110.219H94.1918C98.277 110.219 101.589 106.907 101.589 102.822C101.589 98.7367 98.277 95.4247 94.1918 95.4247H49.8082C45.723 95.4247 42.411 98.7367 42.411 102.822ZM101.589 66.3288C105.674 66.3288 108.986 63.0168 108.986 58.9315V48.0822C108.986 43.9969 105.674 40.6849 101.589 40.6849C97.5038 40.6849 94.1918 43.9969 94.1918 48.0822V58.9315C94.1918 63.0168 97.5038 66.3288 101.589 66.3288ZM42.411 66.3288C46.4962 66.3288 49.8082 63.0168 49.8082 58.9315V48.0822C49.8082 43.9969 46.4962 40.6849 42.411 40.6849C38.3257 40.6849 35.0137 43.9969 35.0137 48.0822V58.9315C35.0137 63.0168 38.3257 66.3288 42.411 66.3288ZM72 144C111.701 144 144 111.701 144 72C144 32.2994 111.701 0 72 0C32.2994 0 0 32.2994 0 72C0 111.701 32.2994 144 72 144ZM72 14.7945C103.543 14.7945 129.205 40.4571 129.205 72C129.205 103.543 103.543 129.205 72 129.205C40.4571 129.205 14.7945 103.543 14.7945 72C14.7945 40.4571 40.4571 14.7945 72 14.7945Z" fill="black"/>
</svg>
