<svg width="287" height="287" viewBox="0 0 287 287" fill="none" xmlns="http://www.w3.org/2000/svg">
<g clip-path="url(#clip0)">
<path d="M186.193 143.529C186.193 143.529 184.553 144.895 183.303 147.171C184.096 155.55 187.516 155.349 190.569 154.838C197.928 153.606 210.858 149.519 217.416 140.021C217.997 139.18 220.307 135.613 215.233 129.243C206.783 123.69 198.792 122.107 192.041 123.238C184.121 124.564 177.967 129.533 178.898 135.094C179.91 141.143 186.193 143.529 186.193 143.529Z" fill="#4F8980"/>
<path d="M29.3794 123.615C34.528 133.856 36.5235 134.251 40.8257 134.907C49.8404 136.283 60.8081 133.743 72.3038 131.301C78.8521 129.91 99.1467 135.881 105.774 135.295C113.988 134.569 116.14 132.953 115.877 123.413L111.381 119.944C109.218 118.274 111.018 114.856 113.618 115.694L131.637 121.504C132.53 121.792 133.448 121.124 133.444 120.185C133.435 117.828 132.964 115.496 131.966 113.244C128.318 105.011 121.208 100.954 116.104 99.0273C113.272 97.9584 111.85 94.7487 112.96 91.9325C114.961 86.8567 116.733 78.8656 113.085 70.6317C110.569 64.9534 105.433 61.3911 98.9909 59.8743C98.2341 59.696 97.4752 60.1719 97.3137 60.9326L93.8142 77.397C93.2464 80.0696 89.3854 79.9273 89.0148 77.2204L86.7513 60.6691C86.6465 59.904 85.9357 59.3782 85.1712 59.4903C80.8247 60.1299 76.328 61.4287 71.9254 63.3794C68.116 65.0672 64.3911 67.2555 60.8042 69.9546C60.3625 70.287 60.1646 70.857 60.298 71.3935L63.4623 84.1409C64.1041 86.7256 60.7291 88.3198 59.1405 86.1824L53.5681 78.6851C53.0445 77.9805 52.0103 77.9412 51.4246 78.5948C45.6857 84.994 40.5343 93.0614 36.2685 102.935C36.0336 103.479 36.1743 104.117 36.6138 104.513L45.1784 112.232C47.0842 113.95 45.3835 117.067 42.907 116.395L33.5504 113.852C32.8374 113.658 32.0947 114.056 31.8716 114.76C30.9752 117.593 30.1423 120.543 29.3777 123.615L29.3794 123.615Z" fill="#4F8980"/>
<path d="M183.661 67.3172C183.152 70.0986 182.863 73.6385 183.414 77.4278C193.66 82.8494 196.472 78.4278 198.858 77.4278C215.09 70.6261 227.069 68.6233 234.557 58.4774C239.351 51.9823 241.672 37.6503 244.165 31.3351C246.293 25.9421 253.265 22.6119 254.39 18.1685C255.401 14.1785 255.621 13.2328 251.311 6.29999C245.386 4.40198 239.717 2.95465 234.309 1.93557C233.149 1.71696 232.06 2.55946 231.988 3.73717L231.699 8.43736C231.541 10.9985 228.042 11.6084 227.027 9.25183L223.674 1.46752C223.387 0.801588 222.753 0.343621 222.03 0.288127C211.179 -0.544285 201.566 0.45573 193.224 2.88906C191.95 3.26071 191.424 4.78315 192.179 5.8751L197.874 14.1129C199.388 16.3035 196.795 18.988 194.553 17.5507L181.23 9.00855C180.612 8.61169 179.818 8.58927 179.188 8.96651C178.062 9.63917 176.969 10.3421 175.917 11.0798C169.175 15.808 163.923 21.7548 160.832 27.8945C160.348 28.8558 160.753 30.0291 161.716 30.5095L179.795 39.5281C182.24 40.7478 181.135 44.4497 178.422 44.1296L160.428 42.008C159.074 41.8482 157.962 43.0926 158.297 44.4144C158.802 46.4111 159.656 48.3147 160.893 50.0793C166.064 57.4533 173.824 60.0581 179.205 60.9628C182.191 61.4651 184.206 64.3396 183.661 67.3172V67.3172Z" fill="#4F8980"/>
<path d="M251.312 6.30057C247.406 21.5317 232.824 60.3569 183.414 77.4278C183.927 80.9503 185.165 84.688 187.657 88.2407C191.116 93.1741 196.611 95.6764 202.975 96.0436C204.074 96.1069 204.998 95.219 205.014 94.1175L205.257 77.8785C205.298 75.1464 209.114 74.5399 210 77.124L215.229 92.3714C215.584 93.4067 216.721 93.9566 217.748 93.5777C221.706 92.118 225.674 90.0435 229.442 87.401C232.758 85.0759 235.903 82.3029 238.829 79.082C239.355 78.5024 239.472 77.6565 239.141 76.9474L233.733 65.3957C232.604 62.9836 235.607 60.7672 237.579 62.5576L243.97 68.3598C244.89 69.1956 246.35 68.9753 246.975 67.9007C251.145 60.7297 254.479 52.1539 256.694 42.1027C256.875 41.2837 256.504 40.4384 255.784 40.0079L246.244 34.301C244.041 32.9837 245.108 29.5958 247.668 29.778L256.79 30.4254C257.834 30.4994 258.759 29.7398 258.872 28.6995C259.485 23.043 259.788 17.0093 259.742 10.5854C259.736 9.77484 259.225 9.04444 258.465 8.76361C256.038 7.86674 253.657 7.0517 251.312 6.30057V6.30057Z" fill="#3D6B73"/>
<path d="M54.4487 140.416C55.0984 137.934 58.6489 138.012 59.1898 140.52L61.048 149.145C61.1557 149.645 61.534 150.049 62.0262 150.188C73.0426 153.289 83.114 154.145 92.1124 153.201C92.9454 153.113 93.4572 152.247 93.1231 151.479L88.7318 141.386C87.6695 138.944 90.7329 136.811 92.6545 138.654L104.329 149.854C104.703 150.213 105.25 150.336 105.74 150.164C107.09 149.689 108.409 149.172 109.688 148.605C117.427 145.176 123.869 140.179 128.086 134.568C128.542 133.96 128.431 133.1 127.83 132.635L115.877 123.412C87.0182 132.785 48.1056 127.243 29.3794 123.614C28.6086 126.711 27.9063 129.929 27.2796 133.275C27.1736 133.84 27.4309 134.42 27.9208 134.721C36.0493 139.721 43.8376 143.616 51.2586 146.54C52.026 146.843 52.8837 146.399 53.0922 145.601L54.4487 140.416Z" fill="#3D6B73"/>
<path d="M215.232 129.244C208.327 140.507 199.911 146.025 191.899 147.366C188.847 147.877 185.867 147.789 183.302 147.171C182.334 148.933 181.6 151.239 182.042 153.879C182.973 159.44 190.41 162.134 198.329 160.809C207.123 159.337 216.406 152.836 223.641 139.225C224.316 137.955 224.047 136.377 222.995 135.397C220.38 132.959 217.785 130.921 215.232 129.244V129.244Z" fill="#3D6B73"/>
<path d="M160.178 185.388C158.093 185.388 156.247 183.892 155.874 181.769C155.564 180.003 148.396 137.961 158.261 89.4128C165.519 53.6987 222.676 28.8755 225.106 27.8362C227.327 26.8861 229.898 27.9164 230.848 30.1384C231.798 32.3593 230.769 34.9299 228.547 35.8806C227.995 36.1177 173.181 59.9337 166.836 91.155C157.298 138.095 164.419 179.84 164.492 180.256C164.91 182.636 163.319 184.904 160.94 185.322C160.684 185.367 160.429 185.388 160.178 185.388Z" fill="#95D6A4"/>
<path d="M157.825 132.952C155.922 132.952 154.171 131.7 153.621 129.778C150.748 119.736 144.512 111.912 135.586 107.153C125.179 101.605 111.917 100.778 99.2033 104.886L66.732 115.376C64.436 116.122 61.9668 114.858 61.2241 112.558C60.4813 110.259 61.7431 107.793 64.0419 107.05L96.5133 96.5598C111.473 91.7273 127.214 92.7744 139.703 99.4321C150.771 105.333 158.493 114.995 162.034 127.373C162.698 129.695 161.354 132.117 159.031 132.782C158.629 132.897 158.223 132.952 157.825 132.952V132.952Z" fill="#95D6A4"/>
<path d="M158.563 171.947C158.376 171.947 158.185 171.935 157.995 171.911C155.598 171.602 153.908 169.39 154.216 166.994C154.328 166.124 157.277 145.622 185.222 139.263C187.579 138.73 189.923 140.202 190.459 142.558C190.995 144.914 189.519 147.258 187.163 147.795C165.407 152.745 162.981 167.522 162.889 168.149C162.605 170.354 160.728 171.947 158.563 171.947Z" fill="#95D6A4"/>
<path d="M97.9858 275.67C97.5649 274.643 97.2162 273.566 96.9398 272.441C96.4841 270.586 97.8917 268.792 99.802 268.792H222.007C223.917 268.792 225.325 270.586 224.869 272.441C224.593 273.566 224.244 274.643 223.823 275.67C220.979 282.606 214.063 287 206.567 287H115.242C107.746 287 100.829 282.606 97.9858 275.67V275.67Z" fill="#9D6B6B"/>
<path d="M222.007 268.792H208.178C210.087 268.792 211.495 270.587 211.04 272.441C210.763 273.567 210.415 274.644 209.994 275.671C207.15 282.606 200.234 287 192.737 287H206.567C214.062 287 220.979 282.606 223.822 275.67C224.243 274.643 224.592 273.566 224.868 272.441C225.325 270.587 223.917 268.792 222.007 268.792V268.792Z" fill="#8B5E5E"/>
<path d="M116.142 268.792C95.8832 242.171 88.4806 222.322 93.9336 184.045C94.419 180.637 97.3227 178.096 100.764 178.096H221.044C224.486 178.096 227.389 180.637 227.875 184.045C233.328 222.322 225.925 242.171 205.666 268.792H116.142Z" fill="#C6865C"/>
<path d="M227.875 184.045C227.389 180.637 224.486 178.096 221.044 178.096H206.396C209.838 178.096 212.742 180.637 213.227 184.045C218.681 222.322 211.277 242.171 191.018 268.792H205.666C225.925 242.171 233.328 222.322 227.875 184.045V184.045Z" fill="#C17D4F"/>
</g>
<defs>
<clipPath id="clip0">
<rect width="287" height="287" fill="white"/>
</clipPath>
</defs>
</svg>
