<svg width="144" height="144" viewBox="0 0 144 144" fill="none" xmlns="http://www.w3.org/2000/svg">
<path d="M70 133C34.6534 133 6 104.347 6 69C6 33.6534 34.6534 5 70 5C105.347 5 134 33.6534 134 69C134 104.347 105.347 133 70 133Z" fill="#F58A97"/>
<path d="M70 5C64.9543 5 60.0521 5.6019 55.3435 6.70602C83.6227 13.3347 104.687 38.6992 104.687 69C104.687 99.3008 83.6227 124.664 55.3435 131.294C60.0521 132.398 64.9543 133 70 133C105.347 133 134 104.347 134 69C134 33.6534 105.347 5 70 5Z" fill="#F07281"/>
<path d="M101.589 61.4584C105.674 61.4584 108.986 58.1464 108.986 54.0612V43.2118C108.986 39.1266 105.674 35.8146 101.589 35.8146C97.5038 35.8146 94.1918 39.1266 94.1918 43.2118V54.0612C94.1918 58.1464 97.5038 61.4584 101.589 61.4584ZM44.1577 105.563C46.7941 108.684 51.4613 109.076 54.5819 106.44C56.8751 104.503 63.1193 100.046 72.0049 100.046C80.5542 100.046 87.194 104.56 89.4161 106.439C92.522 109.064 97.1921 108.697 99.8403 105.565C102.478 102.445 102.087 97.777 98.9665 95.1406C94.6938 91.5288 85.5883 85.4423 72.5987 85.2569C58.538 85.0675 48.6316 92.1008 45.0335 95.1396C41.9139 97.774 41.5213 102.442 44.1577 105.563ZM42.411 61.4584C46.4962 61.4584 49.8082 58.1464 49.8082 54.0612V43.2118C49.8082 39.1266 46.4962 35.8146 42.411 35.8146C38.3257 35.8146 35.0137 39.1266 35.0137 43.2118V54.0612C35.0137 58.1464 38.3257 61.4584 42.411 61.4584ZM72 144C111.701 144 144 111.701 144 72C144 32.2994 111.701 0 72 0C32.2994 0 0 32.2994 0 72C0 111.701 32.2994 144 72 144ZM72 14.7945C103.543 14.7945 129.205 40.4571 129.205 72C129.205 103.543 103.543 129.205 72 129.205C40.4571 129.205 14.7945 103.543 14.7945 72C14.7945 40.4571 40.4571 14.7945 72 14.7945Z" fill="black"/>
</svg>
